# xmcd
#
# Track frame offsets:
#	150
#	11590
#	23250
#	38320
#	56252
#	66775
#	78952
#	91767
#	103810
#	122480
#	133860
#	145870
#	172522
#	183167
#	195567
#	207577
#	220232
#	231492
#	260847
#	275207
#
# Disc length: 3837 seconds
# Revision: 0
# Processed by: cddbd v1.5.2PL0 Copyright (c) Steve Scherf et al.
# Submitted via: dBpowerAMP V12.0
#
DISCID=0f0efb14
DTITLE=Ray Charles - Mess Around [dBP-LITE-FLAC@]
DYEAR=1988
DGENRE=Blues
TTITLE0=HALLELUJAH I LOVE HER SO
TTITLE1=LONELY AVENUE
TTITLE2=DROWN IN MY OWN TEARS
TTITLE3=ROCKHOUSE
TTITLE4=THEY'RE CRAZY ABOUT ME
TTITLE5=GOIN' DOWN SLOW
TTITLE6=GREENBACKS
TTITLE7=LEAVE MY WOMAN ALONE
TTITLE8=SWEET SIXTEEN BARS
TTITLE9=THIS LITTLE GIRL OF MINE
TTITLE10=MESS AROUND
TTITLE11=DOODLIN'
TTITLE12=I WONDER WHO'S KISSING HER NOW
TTITLE13=THAT'S ENOUGH
TTITLE14=IT SHOULD'VE BEEN ME
TTITLE15=TALKIN' 'BOUT YOU
TTITLE16=IF I GIVE YOU MY LOVE
TTITLE17=BLUES WALTZ
TTITLE18=LOSING HAND
TTITLE19=I'VE GOT A WOMAN
EXTD=
EXTT0=
EXTT1=
EXTT2=
EXTT3=
EXTT4=
EXTT5=
EXTT6=
EXTT7=
EXTT8=
EXTT9=
EXTT10=
EXTT11=
EXTT12=
EXTT13=
EXTT14=
EXTT15=
EXTT16=
EXTT17=
EXTT18=
EXTT19=
PLAYORDER=
